<svg xmlns="http://www.w3.org/2000/svg" width="500" height="400" viewBox="0 0 500 400">
  <!-- Background -->
  <rect width="500" height="400" fill="#f8f9ff" rx="10" ry="10"/>
  
  <!-- Document -->
  <rect x="100" y="80" width="300" height="240" fill="white" stroke="#4a6bff" stroke-width="2" rx="5" ry="5"/>
  
  <!-- Document Lines -->
  <line x1="130" y1="120" x2="370" y2="120" stroke="#ddd" stroke-width="2"/>
  <line x1="130" y1="150" x2="370" y2="150" stroke="#ddd" stroke-width="2"/>
  <line x1="130" y1="180" x2="370" y2="180" stroke="#ddd" stroke-width="2"/>
  <line x1="130" y1="210" x2="300" y2="210" stroke="#ddd" stroke-width="2"/>
  <line x1="130" y1="240" x2="330" y2="240" stroke="#ddd" stroke-width="2"/>
  <line x1="130" y1="270" x2="280" y2="270" stroke="#ddd" stroke-width="2"/>
  
  <!-- Pencil -->
  <polygon points="380,100 390,90 410,110 400,120" fill="#ffc107"/>
  <rect x="350" y="120" width="50" height="10" fill="#ffc107" transform="rotate(-45, 350, 120)"/>
  <polygon points="330,140 340,130 345,135 335,145" fill="#ff6b6b"/>
  
  <!-- Person silhouette -->
  <circle cx="80" cy="180" r="30" fill="#4a6bff" opacity="0.7"/>
  <rect x="65" y="210" width="30" height="60" fill="#4a6bff" opacity="0.7" rx="10" ry="10"/>
  <rect x="50" y="230" width="20" height="40" fill="#4a6bff" opacity="0.7" rx="5" ry="5" transform="rotate(20, 50, 230)"/>
  <rect x="90" y="230" width="20" height="40" fill="#4a6bff" opacity="0.7" rx="5" ry="5" transform="rotate(-20, 90, 230)"/>
  
  <!-- Decorative Elements -->
  <circle cx="430" cy="70" r="15" fill="#ff6b6b" opacity="0.5"/>
  <circle cx="460" cy="100" r="10" fill="#ffc107" opacity="0.5"/>
  <circle cx="430" cy="120" r="8" fill="#4a6bff" opacity="0.5"/>
  
  <circle cx="70" cy="320" r="15" fill="#ff6b6b" opacity="0.5"/>
  <circle cx="40" cy="290" r="10" fill="#ffc107" opacity="0.5"/>
  <circle cx="70" cy="270" r="8" fill="#4a6bff" opacity="0.5"/>
</svg>